<?xml version="1.0" ?><svg viewBox="0 0 64 64" xmlns="http://www.w3.org/2000/svg"><title/><g data-name="language" id="language-2"><path d="M55,6H36V5a3,3,0,0,0-3-3H31a3,3,0,0,0-3,3V6H9A3,3,0,0,0,6,9V35a3,3,0,0,0,3,3h2v1a3,3,0,0,0,3,3h9.92L9.22,60.38a1,1,0,0,0-.12,1A1,1,0,0,0,10,62h6a1,1,0,0,0,.78-.38L28,47.6V55a3,3,0,0,0,3,3h2a3,3,0,0,0,3-3V47.6l11.22,14A1,1,0,0,0,48,62h6a1,1,0,0,0,.9-.57,1,1,0,0,0-.12-1L40.08,42H50a3,3,0,0,0,3-3V38h2a3,3,0,0,0,3-3V9A3,3,0,0,0,55,6ZM15.52,60H12.08l14.4-18h3.44Zm36.4,0H48.48L34.08,42h3.44ZM56,35a1,1,0,0,1-1,1H9a1,1,0,0,1-1-1V9A1,1,0,0,1,9,8H55a1,1,0,0,1,1,1Z"/><path d="M32.92,28.61l-6-14a1,1,0,0,0-1.84,0l-6,14a1,1,0,0,0,1.84.78L23.23,24h5.54l2.31,5.39A1,1,0,0,0,32,30a1,1,0,0,0,.39-.08A1,1,0,0,0,32.92,28.61ZM24.09,22,26,17.54,27.91,22Z"/><path d="M44,20a1,1,0,0,0-1,1v0a4.92,4.92,0,0,0-3-1,5,5,0,0,0,0,10,4.92,4.92,0,0,0,3-1v0a1,1,0,0,0,2,0V21A1,1,0,0,0,44,20Zm-4,8a3,3,0,1,1,3-3A3,3,0,0,1,40,28Z"/></g></svg>